<svg width="20" height="20" viewBox="0 0 20 20" fill="none" xmlns="http://www.w3.org/2000/svg">
<path d="M10 3.33337C9.77903 3.33337 9.56707 3.42117 9.41079 3.57745C9.2545 3.73373 9.16671 3.94569 9.16671 4.16671V9.16671H4.16671C3.94569 9.16671 3.73373 9.2545 3.57745 9.41079C3.42117 9.56707 3.33337 9.77903 3.33337 10C3.33337 10.2211 3.42117 10.433 3.57745 10.5893C3.73373 10.7456 3.94569 10.8334 4.16671 10.8334H9.16671V15.8334C9.16671 16.0544 9.2545 16.2663 9.41079 16.4226C9.56707 16.5789 9.77903 16.6667 10 16.6667C10.2211 16.6667 10.433 16.5789 10.5893 16.4226C10.7456 16.2663 10.8334 16.0544 10.8334 15.8334V10.8334H15.8334C16.0544 10.8334 16.2663 10.7456 16.4226 10.5893C16.5789 10.433 16.6667 10.2211 16.6667 10C16.6667 9.77903 16.5789 9.56707 16.4226 9.41079C16.2663 9.2545 16.0544 9.16671 15.8334 9.16671H10.8334V4.16671C10.8334 3.94569 10.7456 3.73373 10.5893 3.57745C10.433 3.42117 10.2211 3.33337 10 3.33337Z" fill="#C0C0C0"/>
</svg>
