<svg width="32" height="32" viewBox="0 0 32 32" fill="none" xmlns="http://www.w3.org/2000/svg">
<path d="M22.0266 7.5332L17.8933 4.3332C17.36 3.79987 16.16 3.5332 15.36 3.5332H10.2933C8.6933 3.5332 6.95997 4.7332 6.55997 6.3332L3.35997 16.0665C2.6933 17.9332 3.8933 19.5332 5.8933 19.5332H11.2266C12.0266 19.5332 12.6933 20.1999 12.56 21.1332L11.8933 25.3999C11.6266 26.5999 12.4266 27.9332 13.6266 28.3332C14.6933 28.7332 16.0266 28.1999 16.56 27.3999L22.0266 19.2665" stroke="#C0C0C0" stroke-width="1.5" stroke-miterlimit="10"/>
<path d="M28.8268 7.53333V20.6C28.8268 22.4667 28.0268 23.1333 26.1602 23.1333H24.8268C22.9602 23.1333 22.1602 22.4667 22.1602 20.6V7.53333C22.1602 5.66667 22.9602 5 24.8268 5H26.1602C28.0268 5 28.8268 5.66667 28.8268 7.53333Z" stroke="#C0C0C0" stroke-width="1.5" stroke-linecap="round" stroke-linejoin="round"/>
</svg>
