<svg width="20" height="20" viewBox="0 0 20 20" fill="none" xmlns="http://www.w3.org/2000/svg">
<path d="M5.35008 14.7748C3.49175 13.5581 2.29175 11.7248 2.29175 10.1165C2.29175 7.38314 5.74175 4.03314 10.0001 4.03314C11.7417 4.03314 13.3584 4.59148 14.6584 5.45814" stroke="#C0C0C0" stroke-width="1.5" stroke-linecap="round" stroke-linejoin="round"/>
<path d="M16.5414 7.17517C17.2839 8.11684 17.7164 9.1585 17.7164 10.1168C17.7164 12.8502 14.2581 16.2002 9.99977 16.2002C9.24144 16.2002 8.50061 16.0918 7.80811 15.9002" stroke="#C0C0C0" stroke-width="1.5" stroke-linecap="round" stroke-linejoin="round"/>
<path d="M8.13828 11.9725C7.64245 11.4816 7.36495 10.8125 7.36745 10.115C7.36412 8.6608 8.54078 7.47913 9.99578 7.47663C10.6958 7.47496 11.3674 7.75246 11.8624 8.24746" stroke="#C0C0C0" stroke-width="1.5" stroke-linecap="round" stroke-linejoin="round"/>
<path d="M12.5912 10.5826C12.3962 11.6592 11.5537 12.5034 10.4771 12.7009" stroke="#7F58AD" stroke-width="1.5" stroke-linecap="round" stroke-linejoin="round"/>
<path d="M16.5764 3.54156L3.4314 16.6866" stroke="#7F58AD" stroke-width="1.5" stroke-linecap="round" stroke-linejoin="round"/>
</svg>
