<svg width="20" height="20" viewBox="0 0 20 20" fill="none" xmlns="http://www.w3.org/2000/svg">
<path d="M14.6929 8.91601H14.7137C15.0487 8.91601 15.3262 8.65018 15.3379 8.31184C15.3871 6.85768 14.5196 5.78851 13.1796 5.65101C12.8429 5.62268 12.5296 5.86518 12.4937 6.20851C12.4587 6.55184 12.7087 6.85851 13.0521 6.89434C13.7279 6.96351 14.1154 7.47768 14.0887 8.27018C14.0771 8.61518 14.3479 8.90434 14.6929 8.91601Z" fill="#383838"/>
<path fill-rule="evenodd" clip-rule="evenodd" d="M1.79945 10.5323C3.29445 15.1856 8.28862 17.6964 10.002 17.6964C11.7278 17.6964 16.7386 15.1848 18.202 10.5314C19.1603 7.53811 18.0978 3.63145 14.7095 2.53978C13.2661 2.07728 11.2886 2.24728 9.98362 3.57478C8.77445 2.41311 6.97778 1.99395 5.28528 2.54061C1.90028 3.62978 0.839451 7.53728 1.79862 10.5314L1.79945 10.5323ZM10.002 16.4464C9.01445 16.4464 4.36195 14.4214 2.98945 10.1506C2.21362 7.72728 3.01695 4.58395 5.66862 3.72978C6.82778 3.35561 8.52112 3.56561 9.49529 4.91061C9.61612 5.07645 9.80945 5.15978 10.0153 5.16811C10.2203 5.16395 10.4103 5.05895 10.5236 4.88811C11.412 3.53978 13.1186 3.34311 14.327 3.72978C16.9811 4.58478 17.7861 7.72811 17.0103 10.1531C15.6678 14.4223 10.997 16.4464 10.002 16.4464Z" fill="#383838"/>
</svg>
