<svg width="38" height="46" viewBox="0 0 38 46" fill="none" xmlns="http://www.w3.org/2000/svg">
<path d="M36.1757 0.600006H1.10004C0.823894 0.600006 0.600037 0.823864 0.600037 1.10001V6.10001C0.600037 6.37615 0.823895 6.60001 1.10004 6.60001H31.0746C31.2055 6.60001 31.3312 6.54869 31.4246 6.45708L36.5257 1.45708C36.8455 1.14357 36.6235 0.600006 36.1757 0.600006Z" fill="#7F58AD"/>
<path d="M17.9946 13H1.1001C0.823955 13 0.600098 13.2239 0.600098 13.5V44.9C0.600098 45.1762 0.823955 45.4 1.1001 45.4H4.68681C4.81913 45.4 4.94606 45.3476 5.03978 45.2542L16.5005 33.8311C16.6956 33.6366 17.0113 33.6366 17.2064 33.8311L28.6671 45.2542C28.7608 45.3476 28.8877 45.4 29.0201 45.4H36.1902C36.636 45.4 36.8589 44.8606 36.5432 44.5459L21.5021 29.5542C21.306 29.3588 21.306 29.0413 21.5021 28.8459L36.5432 13.8542C36.8589 13.5394 36.636 13 36.1902 13H29.0201C28.8877 13 28.7608 13.0525 28.6671 13.1459L7.5864 34.1574C7.27118 34.4716 6.73343 34.2483 6.73343 33.8033V19.817C6.73343 19.5409 6.95729 19.317 7.23343 19.317H12.6601C12.7925 19.317 12.9194 19.2646 13.0131 19.1711L18.3476 13.8542C18.6634 13.5394 18.4405 13 17.9946 13Z" fill="#242424"/>
</svg>
