<svg width="32" height="32" viewBox="0 0 32 32" fill="none" xmlns="http://www.w3.org/2000/svg">
<path d="M9.97314 24.4663L14.1065 27.6663C14.6398 28.1996 15.8398 28.4663 16.6398 28.4663H21.7065C23.3065 28.4663 25.0398 27.2663 25.4398 25.6663L28.6398 15.933C29.3065 14.0663 28.1065 12.4663 26.1065 12.4663H20.7731C19.9731 12.4663 19.3065 11.7996 19.4398 10.8663L20.1065 6.59963C20.3731 5.39963 19.5731 4.0663 18.3731 3.6663C17.3065 3.2663 15.9731 3.79963 15.4398 4.59963L9.97314 12.733" stroke="#C0C0C0" stroke-width="1.5" stroke-miterlimit="10"/>
<path d="M3.17334 24.4662V11.3995C3.17334 9.53288 3.97334 8.86621 5.84001 8.86621H7.17334C9.04001 8.86621 9.84001 9.53288 9.84001 11.3995V24.4662C9.84001 26.3329 9.04001 26.9995 7.17334 26.9995H5.84001C3.97334 26.9995 3.17334 26.3329 3.17334 24.4662Z" stroke="#C0C0C0" stroke-width="1.5" stroke-linecap="round" stroke-linejoin="round"/>
</svg>
