<svg width="209" height="37" viewBox="0 0 209 37" fill="none" xmlns="http://www.w3.org/2000/svg">
<path d="M0.2 2.4H14.84V3.312H12.2V18.48L12.584 18.384L26.12 3.312H22.328V2.4H30.728V3.312H27.848L19.592 12.528L31.112 35.088H33.704V36H18.296V35.088H20.552L12.632 19.776L12.2 19.872V35.088H14.84V36H0.2V35.088H2.84V3.312H0.2V2.4ZM54.923 21.168V17.616C54.923 11.76 54.635 8.064 54.059 6.528C53.419 4.768 52.507 3.68 51.323 3.264C50.651 3.008 49.835 2.88 48.875 2.88C47.915 2.88 47.083 3.008 46.379 3.264C45.707 3.52 45.147 3.968 44.699 4.608C44.251 5.248 43.883 5.92 43.595 6.624C43.339 7.328 43.131 8.32 42.971 9.6C42.779 11.456 42.683 14.192 42.683 17.808V21.264C42.683 25.168 42.827 27.952 43.115 29.616C43.435 31.248 43.819 32.416 44.267 33.12C45.259 34.688 46.795 35.472 48.875 35.472C51.403 35.472 53.035 34.416 53.771 32.304C54.539 30.16 54.923 26.448 54.923 21.168ZM48.779 36.48C43.435 36.48 39.435 35.04 36.779 32.16C34.155 29.248 32.843 25.056 32.843 19.584C32.843 14.08 34.251 9.76 37.067 6.624C39.915 3.456 43.931 1.872 49.115 1.872C54.299 1.872 58.203 3.376 60.827 6.384C63.483 9.36 64.811 13.6 64.811 19.104C64.811 24.608 63.467 28.88 60.779 31.92C58.123 34.96 54.123 36.48 48.779 36.48ZM67.7893 2.4H85.0693V3.456H79.9813V34.944H81.7093C84.4293 34.944 86.5893 34.112 88.1893 32.448C89.8213 30.784 91.4693 28.224 93.1333 24.768H94.1413L93.2292 36H67.7893V34.944H70.6213V3.456H67.7893V2.4ZM96.383 2.4H121.343L121.823 12.384H120.959C119.775 8.928 118.399 6.576 116.831 5.328C115.295 4.08 112.991 3.456 109.919 3.456H108.575V19.056H110.735C112.271 19.056 113.551 18.496 114.575 17.376C115.599 16.256 116.303 14.72 116.687 12.768H117.407V26.976H116.591C116.079 24.576 115.359 22.864 114.431 21.84C113.535 20.816 112.303 20.304 110.735 20.304H108.575V34.944H114.527V36H96.383V34.944H99.215V3.456H96.383V2.4ZM150.888 36H139.944L139.416 32.496C138.904 33.776 138.136 34.768 137.112 35.472C136.12 36.144 134.632 36.48 132.648 36.48C127.688 36.48 125.208 33.808 125.208 28.464V14.016H122.52V13.152H134.136V29.616C134.136 31.536 134.264 32.8 134.52 33.408C134.808 34.016 135.352 34.32 136.152 34.32C136.984 34.32 137.72 33.824 138.36 32.832C139 31.84 139.32 30.464 139.32 28.704V14.016H137.112V13.152H148.248V35.136H150.888V36ZM151.967 13.152H163.535V17.568C164.047 16.096 164.831 14.912 165.887 14.016C166.943 13.12 168.543 12.672 170.687 12.672C175.647 12.672 178.127 15.344 178.127 20.688V35.136H180.815V36H167.231V35.136H169.199V19.536C169.199 17.616 169.071 16.384 168.815 15.84C168.559 15.264 168.095 14.976 167.423 14.976C166.399 14.976 165.487 15.648 164.687 16.992C163.919 18.336 163.535 19.968 163.535 21.888V35.136H165.599V36H151.967V35.136H154.607V14.016H151.967V13.152ZM191.193 26.064C191.193 29.424 191.369 31.664 191.721 32.784C192.073 33.872 192.713 34.416 193.641 34.416C194.601 34.416 195.417 34 196.089 33.168C196.793 32.336 197.145 31.104 197.145 29.472V19.008C197.145 17.632 196.873 16.464 196.329 15.504C195.785 14.544 194.985 14.064 193.929 14.064C192.873 14.064 192.153 14.768 191.769 16.176C191.385 17.584 191.193 20.048 191.193 23.568V26.064ZM197.769 36L197.241 32.64C196.153 35.2 193.945 36.48 190.617 36.48C187.865 36.48 185.721 35.488 184.185 33.504C182.681 31.52 181.929 28.56 181.929 24.624C181.929 16.656 185.097 12.672 191.433 12.672C194.249 12.672 196.105 13.456 197.001 15.024V0.863997H194.073V-2.86102e-06H206.073V35.136H208.425V36H197.769Z" fill="#7F58AD"/>
</svg>
