<svg width="21" height="20" viewBox="0 0 21 20" fill="none" stroke="#000" xmlns="http://www.w3.org/2000/svg">
<path fill-rule="evenodd" clip-rule="evenodd" d="M10.3705 18.0516C7.29402 18.0516 4.66675 17.5729 4.66675 15.6555C4.66675 13.7382 7.27735 11.9683 10.3705 11.9683C13.4471 11.9683 16.0743 13.7211 16.0743 15.6384C16.0743 17.5549 13.4637 18.0516 10.3705 18.0516Z" stroke-width="1.5" stroke-linecap="round" stroke-linejoin="round"/>
<path fill-rule="evenodd" clip-rule="evenodd" d="M10.3646 9.31136C12.3835 9.31136 14.0199 7.675 14.0199 5.65606C14.0199 3.63712 12.3835 2 10.3646 2C8.34564 2 6.70852 3.63712 6.70852 5.65606C6.7017 7.66818 8.3267 9.30455 10.3388 9.31136C10.3479 9.31136 10.3562 9.31136 10.3646 9.31136Z" stroke-width="1.5" stroke-linecap="round" stroke-linejoin="round"/>
</svg>
