<svg width="20" height="20" viewBox="0 0 20 20" fill="none" xmlns="http://www.w3.org/2000/svg">
<path d="M18.1296 17.1719L15.2651 14.3714L15.198 14.2693C15.0731 14.145 14.9025 14.075 14.7243 14.075C14.5461 14.075 14.3754 14.145 14.2506 14.2693C11.8162 16.5026 8.06511 16.624 5.48499 14.5529C2.90488 12.4819 2.29638 8.86098 4.06306 6.09165C5.82974 3.32231 9.42338 2.26388 12.4607 3.61828C15.498 4.97269 17.0365 8.31966 16.0558 11.4395C15.9852 11.6649 16.0429 11.91 16.2073 12.0825C16.3716 12.255 16.6176 12.3286 16.8525 12.2757C17.0875 12.2228 17.2757 12.0514 17.3464 11.826C18.5187 8.12371 16.7481 4.13947 13.1801 2.45072C9.61207 0.761972 5.31736 1.87552 3.0742 5.07102C0.831048 8.26651 1.31264 12.585 4.20743 15.2328C7.10223 17.8806 11.5415 18.0631 14.6534 15.6623L17.1897 18.1419C17.4516 18.3969 17.8751 18.3969 18.1371 18.1419C18.3987 17.8833 18.3987 17.467 18.1371 17.2084L18.1296 17.1719Z" fill="#C0C0C0"/>
</svg>
