<svg width="16" height="14" viewBox="0 0 16 14" fill="none" xmlns="http://www.w3.org/2000/svg">
<path d="M7.66335 0.809371C7.80105 0.53034 8.19894 0.53034 8.33665 0.809371L10.1193 4.42145C10.174 4.53226 10.2797 4.60906 10.402 4.62682L14.3882 5.20605C14.6961 5.25079 14.819 5.62921 14.5962 5.8464L11.7118 8.65802C11.6233 8.74427 11.5829 8.86853 11.6038 8.99032L12.2848 12.9604C12.3374 13.2671 12.0155 13.5009 11.74 13.3561L8.1747 11.4817C8.06533 11.4242 7.93467 11.4242 7.8253 11.4817L4.25996 13.3561C3.98454 13.5009 3.66264 13.2671 3.71524 12.9604L4.39616 8.99032C4.41705 8.86853 4.37667 8.74427 4.28819 8.65802L1.40377 5.8464C1.18095 5.62921 1.30391 5.25079 1.61184 5.20605L5.59801 4.62682C5.72028 4.60906 5.82599 4.53226 5.88068 4.42145L7.66335 0.809371Z" fill="#FFD211" stroke="#FFD211" stroke-linejoin="round"/>
</svg>
