<svg width="48" height="48" viewBox="0 0 48 48" fill="none" xmlns="http://www.w3.org/2000/svg">
<path d="M22.9902 5.42762C23.4033 4.59053 24.597 4.59053 25.0101 5.42762L30.3581 16.2639C30.5222 16.5963 30.8393 16.8267 31.2061 16.88L43.1646 18.6177C44.0884 18.7519 44.4573 19.8871 43.7888 20.5387L35.1356 28.9736C34.8701 29.2323 34.749 29.6051 34.8117 29.9705L36.8544 41.8806C37.0122 42.8007 36.0465 43.5023 35.2203 43.0679L24.5242 37.4447C24.1961 37.2722 23.8042 37.2722 23.476 37.4447L12.78 43.0679C11.9538 43.5023 10.9881 42.8007 11.1459 41.8806L13.1886 29.9705C13.2513 29.6051 13.1302 29.2323 12.8647 28.9736L4.21147 20.5387C3.54301 19.8871 3.91187 18.7519 4.83566 18.6177L16.7942 16.88C17.161 16.8267 17.4781 16.5963 17.6422 16.2639L22.9902 5.42762Z" fill="#FFD211"/>
</svg>
