<svg width="20" height="20" viewBox="0 0 20 20" fill="none" xmlns="http://www.w3.org/2000/svg">
<path fill-rule="evenodd" clip-rule="evenodd" d="M14.4037 8.58252C13.5695 8.58252 12.893 9.25905 12.893 10.0932C12.893 10.9284 13.5697 11.6047 14.4037 11.6047H17.6426C17.9878 11.6047 18.2676 11.8846 18.2676 12.2297C18.2676 12.5749 17.9878 12.8547 17.6426 12.8547H14.4037C12.879 12.8547 11.643 11.6184 11.643 10.0932C11.643 8.56869 12.8792 7.33252 14.4037 7.33252H17.6172C17.9624 7.33252 18.2422 7.61234 18.2422 7.95752C18.2422 8.3027 17.9624 8.58252 17.6172 8.58252H14.4037Z" fill="#7F58AD"/>
<path fill-rule="evenodd" clip-rule="evenodd" d="M13.8957 10.0444C13.8957 9.69926 14.1755 9.41943 14.5207 9.41943H14.7683C15.1135 9.41943 15.3933 9.69926 15.3933 10.0444C15.3933 10.3896 15.1135 10.6694 14.7683 10.6694H14.5207C14.1755 10.6694 13.8957 10.3896 13.8957 10.0444Z" fill="#7F58AD"/>
<path fill-rule="evenodd" clip-rule="evenodd" d="M5.7135 6.78662C5.7135 6.44144 5.99332 6.16162 6.3385 6.16162H9.72183C10.067 6.16162 10.3468 6.44144 10.3468 6.78662C10.3468 7.1318 10.067 7.41162 9.72183 7.41162H6.3385C5.99332 7.41162 5.7135 7.1318 5.7135 6.78662Z" fill="#7F58AD"/>
<path fill-rule="evenodd" clip-rule="evenodd" d="M4.37977 5.11206C3.36953 6.03954 2.88675 7.58745 2.88675 10.2111C2.88675 12.8343 3.36952 14.3822 4.37979 15.3098C5.40611 16.2522 7.13174 16.702 10.0125 16.702C12.8929 16.702 14.6184 16.2522 15.6446 15.3099C16.6548 14.3823 17.1375 12.8343 17.1375 10.2111C17.1375 7.58745 16.6548 6.03953 15.6446 5.11204C14.6184 4.16982 12.893 3.72021 10.0125 3.72021C7.13169 3.72021 5.40607 4.16983 4.37977 5.11206ZM3.5344 4.19127C4.93012 2.90989 7.07991 2.47021 10.0125 2.47021C12.9448 2.47021 15.0944 2.90989 16.49 4.19128C17.9017 5.48741 18.3875 7.49743 18.3875 10.2111C18.3875 12.9244 17.9017 14.9344 16.49 16.2306C15.0944 17.5121 12.9448 17.952 10.0125 17.952C7.07985 17.952 4.93009 17.5121 3.53438 16.2306C2.12263 14.9344 1.63675 12.9244 1.63675 10.2111C1.63675 7.49743 2.12262 5.4874 3.5344 4.19127Z" fill="#7F58AD"/>
</svg>
